<?xml version="1.0" encoding="UTF-8"?>
<!DOCTYPE svg PUBLIC "-//W3C//DTD SVG 1.1//EN" "http://www.w3.org/Graphics/SVG/1.1/DTD/svg11.dtd">
<!-- Creator: CorelDRAW 2019 (64 Bit) -->
<svg xmlns="http://www.w3.org/2000/svg" xml:space="preserve" width="357px" height="312px" version="1.1" style="shape-rendering:geometricPrecision; text-rendering:geometricPrecision; image-rendering:optimizeQuality; fill-rule:evenodd; clip-rule:evenodd"
viewBox="0 0 355.32 311.05"
 xmlns:xlink="http://www.w3.org/1999/xlink">
 <defs>
  <style type="text/css">
   <![CDATA[
    .str0 {stroke:#F1F2F4;stroke-width:4.98;stroke-miterlimit:22.9256}
    .fil2 {fill:none;fill-rule:nonzero}
    .fil0 {fill:#F1F2F4}
    .fil1 {fill:#F1F2F4;fill-rule:nonzero}
   ]]>
  </style>
 </defs>
 <g id="Camada_x0020_1">
  <metadata id="CorelCorpID_0Corel-Layer"/>
  <path class="fil0" d="M180.58 104.51c-0.09,-0.47 -0.07,-0.35 -0.3,-0.71l-5.29 -7.73c-0.47,-0.71 -0.91,-1.33 -1.41,-2.06 -0.53,-0.76 -4.03,-5.71 -4.17,-6.38l4.32 -6.1c0.37,-0.56 0.67,-0.99 1.07,-1.54l3.3 -4.65 1.51 2.09c0.52,0.77 0.97,1.46 1.49,2.23l48 70.65c1,1.51 2,2.93 3.01,4.45l14.24 21c0.26,0.39 0.5,0.68 0.78,1.09l27.02 39.87 81.17 0c-0.72,-1.36 -13.25,-19.18 -15.21,-22.02 -2.41,-3.48 -5.13,-7.6 -7.64,-10.98l-3.81 -5.5c-0.31,-0.48 -0.59,-0.83 -0.92,-1.32l-2.9 -4.17c-0.67,-0.93 -1.19,-1.81 -1.87,-2.72 -0.37,-0.48 -0.6,-0.9 -0.96,-1.4l-6.68 -9.58c-2.79,-4.17 -5.81,-8.2 -8.58,-12.39 -0.35,-0.52 -0.61,-0.92 -0.97,-1.4l-4.72 -6.82c-0.33,-0.49 -0.64,-0.9 -0.97,-1.39l-6.7 -9.68c-0.32,-0.45 -0.63,-0.93 -0.97,-1.38l-10.47 -15.1c-0.33,-0.5 -0.65,-0.91 -0.97,-1.39l-15.26 -21.97c-0.66,-0.93 -1.24,-1.83 -1.94,-2.79 -0.34,-0.47 -0.58,-0.86 -0.89,-1.34 -0.33,-0.49 -0.62,-0.87 -0.97,-1.38 -0.67,-0.97 -1.3,-1.82 -1.94,-2.78 -0.63,-0.95 -1.25,-1.75 -1.88,-2.71 -3.38,-5.11 -7.04,-10.03 -10.48,-15.09l-7.62 -11c-0.34,-0.51 -0.65,-0.91 -0.97,-1.39 -3.1,-4.69 -6.5,-9.16 -9.6,-13.85 -0.64,-0.97 -1.25,-1.75 -1.89,-2.71l-7.66 -10.96c-1.49,-1.99 -3.13,-3.82 -4.71,-5.71l-1.8 -1.81c-1.55,-1.55 -3.19,-3.03 -4.96,-4.34 -3.73,-2.79 -7.5,-5.04 -11.93,-6.69 -4.25,-1.58 -9.79,-2.96 -15.64,-2.96l-0.19 0 -0.17 0c-3.51,0 -5,0.01 -8.47,0.49 -2.63,0.36 -5.28,1 -7.55,1.76 -1.15,0.38 -2.26,0.79 -3.37,1.22 -2.17,0.87 -4.2,1.96 -6.2,3.11l-1.44 0.92c-1.84,1.23 -3.7,2.48 -5.36,3.95l-7.07 6.95c-3.05,3.25 -6.49,8.3 -9.02,11.96 -0.66,0.97 -1.27,1.84 -1.95,2.76l-10.61 14.97c-2.29,3.17 -4.44,6.46 -6.79,9.59l-20.28 28.62c-2.33,3.12 -4.5,6.34 -6.74,9.52l-3.92 5.51c-0.53,0.8 -1.26,1.55 -1.7,2.4 -0.16,0.3 -0.17,0.05 -0.09,0.41l-0.48 0.39c-1.24,1.59 -3.25,4.68 -4.62,6.54l-14.98 21.14c-0.43,0.58 -0.83,1.15 -1.24,1.74l-7.47 10.53c-6.5,9.22 -13.37,19.08 -19.91,28.12l-21.27 29.99c-0.4,0.6 -0.79,1.17 -1.23,1.75 -2.04,2.72 -4.21,6.09 -6.22,8.8l-2.5 3.58 77.55 0c0.63,-0.05 0.66,-0.32 1.43,-1.44 0.88,-1.27 1.7,-2.42 2.56,-3.65l6.38 -9.01c0.46,-0.64 0.84,-1.19 1.3,-1.81 0.44,-0.6 0.85,-1.19 1.28,-1.82l2.58 -3.62c0.42,-0.6 0.82,-1.22 1.28,-1.83 0.9,-1.21 1.71,-2.42 2.57,-3.63l30.78 -43.57c0.51,0.39 5.96,8.52 6.13,8.76l2.96 4.36c0.56,0.75 0.95,1.46 1.51,2.22l7.52 10.98c0.26,0.39 0.5,0.68 0.77,1.09l8.26 12.09c0.27,0.39 0.48,0.71 0.75,1.12 0.27,0.4 0.51,0.69 0.77,1.09 0.24,0.37 0.49,0.74 0.74,1.12l6.81 9.94c0.53,0.72 0.93,1.39 1.46,2.14l3.02 4.42c0.26,0.39 0.5,0.69 0.77,1.09l6.8 9.96 81.17 0 -25.49 -37.44c-0.53,-0.79 -0.95,-1.44 -1.51,-2.21l-7.53 -11.08c-0.56,-0.74 -0.99,-1.44 -1.51,-2.22l-11.32 -16.61c-0.25,-0.37 -0.5,-0.69 -0.67,-1.07l-28.24 -41.39c-0.24,-0.27 -0.05,-0.17 -0.3,-0.19z"/>
  <path class="fil1" d="M2.74 307.64l0 -78.21 26.37 0c4.32,0 7.79,0.55 10.4,1.65 2.62,1.1 4.59,2.75 5.92,4.95 1.32,2.19 2.19,4.83 2.61,7.9 0.42,3.07 0.63,6.57 0.63,10.51 0,3.11 -0.18,6.12 -0.52,9.04 -0.34,2.92 -1.08,5.51 -2.21,7.79 -1.14,2.27 -2.88,4.05 -5.23,5.34l9.55 31.03 -15.46 0 -8.42 -30.01 3.19 1.37c-0.46,0.07 -0.99,0.15 -1.59,0.23 -0.61,0.07 -1.29,0.11 -2.05,0.11l-8.3 0 0 28.3 -14.89 0zm14.89 -40.46l7.73 0c1.9,0 3.39,-0.21 4.49,-0.63 1.1,-0.42 1.93,-1.1 2.5,-2.05 0.57,-0.94 0.93,-2.25 1.08,-3.92 0.15,-1.67 0.23,-3.67 0.23,-6.02 0,-2.5 -0.08,-4.57 -0.23,-6.2 -0.15,-1.63 -0.49,-2.9 -1.02,-3.81 -0.53,-0.91 -1.35,-1.57 -2.44,-1.99 -1.1,-0.41 -2.64,-0.62 -4.61,-0.62l-7.73 0 0 25.24z"/>
  <polygon id="1" class="fil1" points="66.34,307.64 66.34,229.43 104.77,229.43 104.77,242.05 81.24,242.05 81.24,261.83 101.58,261.83 101.58,274.34 81.24,274.34 81.24,295.03 104.77,295.03 104.77,307.64 "/>
  <path id="2" class="fil1" d="M122.22 307.64l0 -78.21 25.8 0c3.94,0 7.2,0.53 9.78,1.59 2.58,1.07 4.55,2.66 5.91,4.78 1.36,2.12 2.31,4.81 2.84,8.07 0.53,3.26 0.8,7.16 0.8,11.71 0,4.32 -0.25,8.11 -0.74,11.37 -0.49,3.26 -1.42,5.99 -2.79,8.18 -1.36,2.2 -3.33,3.83 -5.91,4.89 -2.57,1.06 -5.91,1.59 -10,1.59l-10.8 0 0 26.03 -14.89 0zm14.89 -38.53l6.93 0c1.6,0 2.94,-0.14 4.04,-0.4 1.1,-0.26 1.95,-0.83 2.56,-1.71 0.6,-0.87 1.04,-2.23 1.31,-4.09 0.26,-1.85 0.39,-4.3 0.39,-7.33 0,-2.96 -0.11,-5.34 -0.34,-7.16 -0.23,-1.82 -0.62,-3.18 -1.19,-4.09 -0.57,-0.91 -1.4,-1.54 -2.5,-1.88 -1.1,-0.34 -2.52,-0.51 -4.27,-0.51l-6.93 0 0 27.17z"/>
  <path id="3" class="fil1" d="M206.17 308.55c-4.32,0 -7.94,-0.26 -10.85,-0.79 -2.92,-0.53 -5.27,-1.57 -7.05,-3.13 -1.78,-1.55 -3.15,-3.81 -4.1,-6.76 -0.94,-2.96 -1.59,-6.82 -1.93,-11.6 -0.34,-4.77 -0.51,-10.68 -0.51,-17.73 0,-7.05 0.17,-12.96 0.51,-17.73 0.34,-4.78 0.99,-8.64 1.93,-11.6 0.95,-2.96 2.32,-5.21 4.1,-6.76 1.78,-1.56 4.13,-2.6 7.05,-3.13 2.91,-0.53 6.53,-0.8 10.85,-0.8 4.25,0 7.83,0.27 10.74,0.8 2.92,0.53 5.29,1.57 7.11,3.13 1.82,1.55 3.2,3.8 4.15,6.76 0.95,2.96 1.59,6.82 1.93,11.6 0.34,4.77 0.51,10.68 0.51,17.73 0,7.05 -0.17,12.96 -0.51,17.73 -0.34,4.78 -0.98,8.64 -1.93,11.6 -0.95,2.95 -2.33,5.21 -4.15,6.76 -1.82,1.56 -4.19,2.6 -7.11,3.13 -2.91,0.53 -6.49,0.79 -10.74,0.79zm0 -12.61c1.75,0 3.2,-0.12 4.38,-0.35 1.17,-0.22 2.12,-0.79 2.84,-1.7 0.72,-0.91 1.23,-2.35 1.53,-4.32 0.31,-1.97 0.5,-4.66 0.57,-8.07 0.08,-3.41 0.12,-7.73 0.12,-12.96 0,-5.23 -0.04,-9.55 -0.12,-12.96 -0.07,-3.41 -0.26,-6.1 -0.57,-8.07 -0.3,-1.97 -0.81,-3.41 -1.53,-4.32 -0.72,-0.91 -1.67,-1.48 -2.84,-1.71 -1.18,-0.22 -2.63,-0.34 -4.38,-0.34 -1.82,0 -3.29,0.12 -4.43,0.34 -1.14,0.23 -2.05,0.8 -2.73,1.71 -0.68,0.91 -1.19,2.35 -1.54,4.32 -0.34,1.97 -0.54,4.66 -0.62,8.07 -0.08,3.41 -0.11,7.73 -0.11,12.96 0,5.23 0.03,9.55 0.11,12.96 0.08,3.41 0.28,6.1 0.62,8.07 0.35,1.97 0.86,3.41 1.54,4.32 0.68,0.91 1.59,1.48 2.73,1.7 1.14,0.23 2.61,0.35 4.43,0.35z"/>
  <path id="4" class="fil1" d="M248.63 307.64l0 -78.21 26.37 0c4.32,0 7.79,0.55 10.41,1.65 2.61,1.1 4.58,2.75 5.91,4.95 1.32,2.19 2.2,4.83 2.61,7.9 0.42,3.07 0.63,6.57 0.63,10.51 0,3.11 -0.17,6.12 -0.51,9.04 -0.34,2.92 -1.08,5.51 -2.22,7.79 -1.14,2.27 -2.88,4.05 -5.23,5.34l9.55 31.03 -15.46 0 -8.41 -30.01 3.18 1.37c-0.46,0.07 -0.99,0.15 -1.59,0.23 -0.61,0.07 -1.29,0.11 -2.05,0.11l-8.3 0 0 28.3 -14.89 0zm14.89 -40.46l7.73 0c1.9,0 3.39,-0.21 4.49,-0.63 1.1,-0.42 1.94,-1.1 2.5,-2.05 0.57,-0.94 0.93,-2.25 1.08,-3.92 0.16,-1.67 0.23,-3.67 0.23,-6.02 0,-2.5 -0.07,-4.57 -0.23,-6.2 -0.15,-1.63 -0.49,-2.9 -1.02,-3.81 -0.53,-0.91 -1.34,-1.57 -2.44,-1.99 -1.1,-0.41 -2.64,-0.62 -4.61,-0.62l-7.73 0 0 25.24z"/>
  <polygon id="5" class="fil1" points="322.58,307.64 322.58,242.39 307.35,242.39 307.35,229.43 352.82,229.43 352.82,242.39 337.59,242.39 337.59,307.64 "/>
  <path id="6" class="fil2 str0" d="M2.74 307.64l0 -78.21 26.37 0c4.32,0 7.79,0.55 10.4,1.65 2.62,1.1 4.59,2.75 5.92,4.95 1.32,2.19 2.19,4.83 2.61,7.9 0.42,3.07 0.63,6.57 0.63,10.51 0,3.11 -0.18,6.12 -0.52,9.04 -0.34,2.92 -1.08,5.51 -2.21,7.79 -1.14,2.27 -2.88,4.05 -5.23,5.34l9.55 31.03 -15.46 0 -8.42 -30.01 3.19 1.37c-0.46,0.07 -0.99,0.15 -1.59,0.23 -0.61,0.07 -1.29,0.11 -2.05,0.11l-8.3 0 0 28.3 -14.89 0zm14.89 -40.46l7.73 0c1.9,0 3.39,-0.21 4.49,-0.63 1.1,-0.42 1.93,-1.1 2.5,-2.05 0.57,-0.94 0.93,-2.25 1.08,-3.92 0.15,-1.67 0.23,-3.67 0.23,-6.02 0,-2.5 -0.08,-4.57 -0.23,-6.2 -0.15,-1.63 -0.49,-2.9 -1.02,-3.81 -0.53,-0.91 -1.35,-1.57 -2.44,-1.99 -1.1,-0.41 -2.64,-0.62 -4.61,-0.62l-7.73 0 0 25.24z"/>
  <polygon id="7" class="fil2 str0" points="66.34,307.64 66.34,229.43 104.77,229.43 104.77,242.05 81.24,242.05 81.24,261.83 101.58,261.83 101.58,274.34 81.24,274.34 81.24,295.03 104.77,295.03 104.77,307.64 "/>
  <path id="8" class="fil2 str0" d="M122.22 307.64l0 -78.21 25.8 0c3.94,0 7.2,0.53 9.78,1.59 2.58,1.07 4.55,2.66 5.91,4.78 1.36,2.12 2.31,4.81 2.84,8.07 0.53,3.26 0.8,7.16 0.8,11.71 0,4.32 -0.25,8.11 -0.74,11.37 -0.49,3.26 -1.42,5.99 -2.79,8.18 -1.36,2.2 -3.33,3.83 -5.91,4.89 -2.57,1.06 -5.91,1.59 -10,1.59l-10.8 0 0 26.03 -14.89 0zm14.89 -38.53l6.93 0c1.6,0 2.94,-0.14 4.04,-0.4 1.1,-0.26 1.95,-0.83 2.56,-1.71 0.6,-0.87 1.04,-2.23 1.31,-4.09 0.26,-1.85 0.39,-4.3 0.39,-7.33 0,-2.96 -0.11,-5.34 -0.34,-7.16 -0.23,-1.82 -0.62,-3.18 -1.19,-4.09 -0.57,-0.91 -1.4,-1.54 -2.5,-1.88 -1.1,-0.34 -2.52,-0.51 -4.27,-0.51l-6.93 0 0 27.17z"/>
  <path id="9" class="fil2 str0" d="M206.17 308.55c-4.32,0 -7.94,-0.26 -10.85,-0.79 -2.92,-0.53 -5.27,-1.57 -7.05,-3.13 -1.78,-1.55 -3.15,-3.81 -4.1,-6.76 -0.94,-2.96 -1.59,-6.82 -1.93,-11.6 -0.34,-4.77 -0.51,-10.68 -0.51,-17.73 0,-7.05 0.17,-12.96 0.51,-17.73 0.34,-4.78 0.99,-8.64 1.93,-11.6 0.95,-2.96 2.32,-5.21 4.1,-6.76 1.78,-1.56 4.13,-2.6 7.05,-3.13 2.91,-0.53 6.53,-0.8 10.85,-0.8 4.25,0 7.83,0.27 10.74,0.8 2.92,0.53 5.29,1.57 7.11,3.13 1.82,1.55 3.2,3.8 4.15,6.76 0.95,2.96 1.59,6.82 1.93,11.6 0.34,4.77 0.51,10.68 0.51,17.73 0,7.05 -0.17,12.96 -0.51,17.73 -0.34,4.78 -0.98,8.64 -1.93,11.6 -0.95,2.95 -2.33,5.21 -4.15,6.76 -1.82,1.56 -4.19,2.6 -7.11,3.13 -2.91,0.53 -6.49,0.79 -10.74,0.79zm0 -12.61c1.75,0 3.2,-0.12 4.38,-0.35 1.17,-0.22 2.12,-0.79 2.84,-1.7 0.72,-0.91 1.23,-2.35 1.53,-4.32 0.31,-1.97 0.5,-4.66 0.57,-8.07 0.08,-3.41 0.12,-7.73 0.12,-12.96 0,-5.23 -0.04,-9.55 -0.12,-12.96 -0.07,-3.41 -0.26,-6.1 -0.57,-8.07 -0.3,-1.97 -0.81,-3.41 -1.53,-4.32 -0.72,-0.91 -1.67,-1.48 -2.84,-1.71 -1.18,-0.22 -2.63,-0.34 -4.38,-0.34 -1.82,0 -3.29,0.12 -4.43,0.34 -1.14,0.23 -2.05,0.8 -2.73,1.71 -0.68,0.91 -1.19,2.35 -1.54,4.32 -0.34,1.97 -0.54,4.66 -0.62,8.07 -0.08,3.41 -0.11,7.73 -0.11,12.96 0,5.23 0.03,9.55 0.11,12.96 0.08,3.41 0.28,6.1 0.62,8.07 0.35,1.97 0.86,3.41 1.54,4.32 0.68,0.91 1.59,1.48 2.73,1.7 1.14,0.23 2.61,0.35 4.43,0.35z"/>
  <path id="10" class="fil2 str0" d="M248.63 307.64l0 -78.21 26.37 0c4.32,0 7.79,0.55 10.41,1.65 2.61,1.1 4.58,2.75 5.91,4.95 1.32,2.19 2.2,4.83 2.61,7.9 0.42,3.07 0.63,6.57 0.63,10.51 0,3.11 -0.17,6.12 -0.51,9.04 -0.34,2.92 -1.08,5.51 -2.22,7.79 -1.14,2.27 -2.88,4.05 -5.23,5.34l9.55 31.03 -15.46 0 -8.41 -30.01 3.18 1.37c-0.46,0.07 -0.99,0.15 -1.59,0.23 -0.61,0.07 -1.29,0.11 -2.05,0.11l-8.3 0 0 28.3 -14.89 0zm14.89 -40.46l7.73 0c1.9,0 3.39,-0.21 4.49,-0.63 1.1,-0.42 1.94,-1.1 2.5,-2.05 0.57,-0.94 0.93,-2.25 1.08,-3.92 0.16,-1.67 0.23,-3.67 0.23,-6.02 0,-2.5 -0.07,-4.57 -0.23,-6.2 -0.15,-1.63 -0.49,-2.9 -1.02,-3.81 -0.53,-0.91 -1.34,-1.57 -2.44,-1.99 -1.1,-0.41 -2.64,-0.62 -4.61,-0.62l-7.73 0 0 25.24z"/>
  <polygon id="11" class="fil2 str0" points="322.58,307.64 322.58,242.39 307.35,242.39 307.35,229.43 352.82,229.43 352.82,242.39 337.59,242.39 337.59,307.64 "/>
 </g>
</svg>
