<?xml version="1.0" encoding="UTF-8"?>
<!DOCTYPE svg PUBLIC "-//W3C//DTD SVG 1.1//EN" "http://www.w3.org/Graphics/SVG/1.1/DTD/svg11.dtd">
<!-- Creator: CorelDRAW 2019 (64 Bit) -->
<svg xmlns="http://www.w3.org/2000/svg" xml:space="preserve" width="368px" height="314px" version="1.1" style="shape-rendering:geometricPrecision; text-rendering:geometricPrecision; image-rendering:optimizeQuality; fill-rule:evenodd; clip-rule:evenodd"
viewBox="0 0 366.32 312.35"
 xmlns:xlink="http://www.w3.org/1999/xlink"
 sodipodi:docname="THE_FINALS_Logotypes_Symbol.ai"
 xmlns:inkscape="http://www.inkscape.org/namespaces/inkscape"
 xmlns:sodipodi="http://sodipodi.sourceforge.net/DTD/sodipodi-0.dtd"
 xmlns:svg="http://www.w3.org/2000/svg">
 <defs>
  <style type="text/css">
   <![CDATA[
    .str0 {stroke:#E5E6E8;stroke-width:4.98;stroke-miterlimit:22.9256}
    .fil3 {fill:none}
    .fil1 {fill:none;fill-rule:nonzero}
    .fil0 {fill:#E5E6E8;fill-rule:nonzero}
    .fil2 {fill:#E5E6E8;fill-rule:nonzero}
   ]]>
  </style>
    <clipPath id="id0">
     <path d="M0 0l366.32 0 0 219.9 -366.32 0 0 -219.9z"/>
    </clipPath>
        <clipPath id="id1">
         <path d="M0 0l366.32 0 0 219.9 -366.32 0 0 -219.9z"/>
        </clipPath>
        <clipPath id="id2">
         <path d="M0 0l366.32 0 0 219.9 -366.32 0 0 -219.9z"/>
        </clipPath>
 </defs>
 <g id="Camada_x0020_1">
  <metadata id="CorelCorpID_0Corel-Layer"/>
  <g id="_2119876102544">
   <path class="fil0" d="M8.49 308.95l0 -78.1 26.34 0c4.31,0 7.77,0.55 10.38,1.65 2.61,1.09 4.58,2.74 5.91,4.94 1.32,2.19 2.19,4.82 2.61,7.88 0.41,3.07 0.62,6.57 0.62,10.51 0,3.1 -0.17,6.11 -0.51,9.02 -0.34,2.91 -1.08,5.5 -2.21,7.78 -1.14,2.27 -2.88,4.04 -5.23,5.33l9.54 30.99 -15.44 0 -8.4 -29.97 3.18 1.37c-0.45,0.07 -0.98,0.15 -1.59,0.22 -0.6,0.08 -1.28,0.11 -2.04,0.11l-8.29 0 0 28.27 -14.87 0zm14.87 -40.41l7.72 0c1.89,0 3.39,-0.21 4.48,-0.63 1.1,-0.41 1.93,-1.09 2.5,-2.04 0.57,-0.94 0.93,-2.25 1.08,-3.92 0.15,-1.66 0.23,-3.66 0.23,-6.01 0,-2.5 -0.08,-4.56 -0.23,-6.19 -0.15,-1.62 -0.49,-2.89 -1.02,-3.8 -0.53,-0.91 -1.34,-1.57 -2.44,-1.99 -1.1,-0.41 -2.63,-0.62 -4.6,-0.62l-7.72 0 0 25.2z"/>
   <polygon id="1" class="fil0" points="72,308.95 72,230.85 110.37,230.85 110.37,243.45 86.87,243.45 86.87,263.2 107.19,263.2 107.19,275.69 86.87,275.69 86.87,296.35 110.37,296.35 110.37,308.95 "/>
   <path id="2" class="fil0" d="M127.8 308.95l0 -78.1 25.77 0c3.93,0 7.19,0.53 9.76,1.59 2.57,1.06 4.54,2.65 5.9,4.77 1.36,2.12 2.31,4.8 2.84,8.06 0.53,3.25 0.79,7.15 0.79,11.69 0,4.31 -0.24,8.1 -0.73,11.35 -0.49,3.26 -1.42,5.98 -2.78,8.18 -1.37,2.19 -3.33,3.82 -5.91,4.88 -2.57,1.06 -5.9,1.59 -9.99,1.59l-10.78 0 0 25.99 -14.87 0zm14.87 -38.48l6.92 0c1.59,0 2.94,-0.13 4.03,-0.4 1.1,-0.26 1.95,-0.83 2.56,-1.7 0.6,-0.87 1.04,-2.23 1.3,-4.09 0.27,-1.85 0.4,-4.29 0.4,-7.32 0,-2.95 -0.11,-5.33 -0.34,-7.15 -0.23,-1.82 -0.62,-3.18 -1.19,-4.09 -0.57,-0.91 -1.4,-1.53 -2.5,-1.87 -1.1,-0.34 -2.52,-0.51 -4.26,-0.51l-6.92 0 0 27.13z"/>
   <path id="3" class="fil0" d="M211.63 309.86c-4.31,0 -7.93,-0.27 -10.84,-0.8 -2.91,-0.53 -5.26,-1.57 -7.04,-3.12 -1.78,-1.55 -3.14,-3.8 -4.08,-6.75 -0.95,-2.95 -1.59,-6.81 -1.93,-11.58 -0.34,-4.77 -0.51,-10.67 -0.51,-17.71 0,-7.04 0.17,-12.94 0.51,-17.71 0.34,-4.76 0.98,-8.62 1.93,-11.58 0.94,-2.95 2.3,-5.2 4.08,-6.75 1.78,-1.55 4.13,-2.59 7.04,-3.12 2.91,-0.53 6.53,-0.8 10.84,-0.8 4.24,0 7.82,0.27 10.73,0.8 2.91,0.53 5.28,1.57 7.09,3.12 1.82,1.55 3.2,3.8 4.15,6.75 0.94,2.96 1.59,6.82 1.93,11.58 0.34,4.77 0.51,10.67 0.51,17.71 0,7.04 -0.17,12.94 -0.51,17.71 -0.34,4.77 -0.99,8.63 -1.93,11.58 -0.95,2.95 -2.33,5.2 -4.15,6.75 -1.81,1.55 -4.18,2.59 -7.09,3.12 -2.91,0.53 -6.49,0.8 -10.73,0.8zm0 -12.6c1.74,0 3.2,-0.11 4.37,-0.34 1.18,-0.23 2.12,-0.8 2.84,-1.7 0.72,-0.91 1.23,-2.35 1.53,-4.32 0.31,-1.97 0.49,-4.65 0.57,-8.06 0.08,-3.4 0.11,-7.72 0.11,-12.94 0,-5.22 -0.03,-9.53 -0.11,-12.94 -0.08,-3.41 -0.26,-6.09 -0.57,-8.06 -0.3,-1.97 -0.81,-3.4 -1.53,-4.31 -0.72,-0.91 -1.66,-1.48 -2.84,-1.71 -1.17,-0.22 -2.63,-0.34 -4.37,-0.34 -1.81,0 -3.29,0.12 -4.43,0.34 -1.13,0.23 -2.04,0.8 -2.72,1.71 -0.68,0.91 -1.19,2.34 -1.53,4.31 -0.34,1.97 -0.55,4.65 -0.63,8.06 -0.07,3.41 -0.11,7.72 -0.11,12.94 0,5.22 0.04,9.54 0.11,12.94 0.08,3.41 0.29,6.09 0.63,8.06 0.34,1.97 0.85,3.41 1.53,4.32 0.68,0.9 1.59,1.47 2.72,1.7 1.14,0.23 2.62,0.34 4.43,0.34z"/>
   <path id="4" class="fil0" d="M254.03 308.95l0 -78.1 26.34 0c4.31,0 7.77,0.55 10.38,1.65 2.61,1.09 4.58,2.74 5.91,4.94 1.32,2.19 2.19,4.82 2.61,7.88 0.41,3.07 0.62,6.57 0.62,10.51 0,3.1 -0.17,6.11 -0.51,9.02 -0.34,2.91 -1.08,5.5 -2.21,7.78 -1.14,2.27 -2.88,4.04 -5.23,5.33l9.54 30.99 -15.44 0 -8.4 -29.97 3.18 1.37c-0.45,0.07 -0.98,0.15 -1.59,0.22 -0.6,0.08 -1.28,0.11 -2.04,0.11l-8.29 0 0 28.27 -14.87 0zm14.87 -40.41l7.72 0c1.89,0 3.39,-0.21 4.48,-0.63 1.1,-0.41 1.93,-1.09 2.5,-2.04 0.57,-0.94 0.93,-2.25 1.08,-3.92 0.15,-1.66 0.23,-3.66 0.23,-6.01 0,-2.5 -0.08,-4.56 -0.23,-6.19 -0.15,-1.62 -0.49,-2.89 -1.02,-3.8 -0.53,-0.91 -1.34,-1.57 -2.44,-1.99 -1.1,-0.41 -2.63,-0.62 -4.6,-0.62l-7.72 0 0 25.2z"/>
   <polygon id="5" class="fil0" points="327.87,308.95 327.87,243.79 312.66,243.79 312.66,230.85 358.07,230.85 358.07,243.79 342.86,243.79 342.86,308.95 "/>
   <path id="6" class="fil1 str0" d="M8.49 308.95l0 -78.1 26.34 0c4.31,0 7.77,0.55 10.38,1.65 2.61,1.09 4.58,2.74 5.91,4.94 1.32,2.19 2.19,4.82 2.61,7.88 0.41,3.07 0.62,6.57 0.62,10.51 0,3.1 -0.17,6.11 -0.51,9.02 -0.34,2.91 -1.08,5.5 -2.21,7.78 -1.14,2.27 -2.88,4.04 -5.23,5.33l9.54 30.99 -15.44 0 -8.4 -29.97 3.18 1.37c-0.45,0.07 -0.98,0.15 -1.59,0.22 -0.6,0.08 -1.28,0.11 -2.04,0.11l-8.29 0 0 28.27 -14.87 0zm14.87 -40.41l7.72 0c1.89,0 3.39,-0.21 4.48,-0.63 1.1,-0.41 1.93,-1.09 2.5,-2.04 0.57,-0.94 0.93,-2.25 1.08,-3.92 0.15,-1.66 0.23,-3.66 0.23,-6.01 0,-2.5 -0.08,-4.56 -0.23,-6.19 -0.15,-1.62 -0.49,-2.89 -1.02,-3.8 -0.53,-0.91 -1.34,-1.57 -2.44,-1.99 -1.1,-0.41 -2.63,-0.62 -4.6,-0.62l-7.72 0 0 25.2z"/>
   <polygon id="7" class="fil1 str0" points="72,308.95 72,230.85 110.37,230.85 110.37,243.45 86.87,243.45 86.87,263.2 107.19,263.2 107.19,275.69 86.87,275.69 86.87,296.35 110.37,296.35 110.37,308.95 "/>
   <path id="8" class="fil1 str0" d="M127.8 308.95l0 -78.1 25.77 0c3.93,0 7.19,0.53 9.76,1.59 2.57,1.06 4.54,2.65 5.9,4.77 1.36,2.12 2.31,4.8 2.84,8.06 0.53,3.25 0.79,7.15 0.79,11.69 0,4.31 -0.24,8.1 -0.73,11.35 -0.49,3.26 -1.42,5.98 -2.78,8.18 -1.37,2.19 -3.33,3.82 -5.91,4.88 -2.57,1.06 -5.9,1.59 -9.99,1.59l-10.78 0 0 25.99 -14.87 0zm14.87 -38.48l6.92 0c1.59,0 2.94,-0.13 4.03,-0.4 1.1,-0.26 1.95,-0.83 2.56,-1.7 0.6,-0.87 1.04,-2.23 1.3,-4.09 0.27,-1.85 0.4,-4.29 0.4,-7.32 0,-2.95 -0.11,-5.33 -0.34,-7.15 -0.23,-1.82 -0.62,-3.18 -1.19,-4.09 -0.57,-0.91 -1.4,-1.53 -2.5,-1.87 -1.1,-0.34 -2.52,-0.51 -4.26,-0.51l-6.92 0 0 27.13z"/>
   <path id="9" class="fil1 str0" d="M211.63 309.86c-4.31,0 -7.93,-0.27 -10.84,-0.8 -2.91,-0.53 -5.26,-1.57 -7.04,-3.12 -1.78,-1.55 -3.14,-3.8 -4.08,-6.75 -0.95,-2.95 -1.59,-6.81 -1.93,-11.58 -0.34,-4.77 -0.51,-10.67 -0.51,-17.71 0,-7.04 0.17,-12.94 0.51,-17.71 0.34,-4.76 0.98,-8.62 1.93,-11.58 0.94,-2.95 2.3,-5.2 4.08,-6.75 1.78,-1.55 4.13,-2.59 7.04,-3.12 2.91,-0.53 6.53,-0.8 10.84,-0.8 4.24,0 7.82,0.27 10.73,0.8 2.91,0.53 5.28,1.57 7.09,3.12 1.82,1.55 3.2,3.8 4.15,6.75 0.94,2.96 1.59,6.82 1.93,11.58 0.34,4.77 0.51,10.67 0.51,17.71 0,7.04 -0.17,12.94 -0.51,17.71 -0.34,4.77 -0.99,8.63 -1.93,11.58 -0.95,2.95 -2.33,5.2 -4.15,6.75 -1.81,1.55 -4.18,2.59 -7.09,3.12 -2.91,0.53 -6.49,0.8 -10.73,0.8zm0 -12.6c1.74,0 3.2,-0.11 4.37,-0.34 1.18,-0.23 2.12,-0.8 2.84,-1.7 0.72,-0.91 1.23,-2.35 1.53,-4.32 0.31,-1.97 0.49,-4.65 0.57,-8.06 0.08,-3.4 0.11,-7.72 0.11,-12.94 0,-5.22 -0.03,-9.53 -0.11,-12.94 -0.08,-3.41 -0.26,-6.09 -0.57,-8.06 -0.3,-1.97 -0.81,-3.4 -1.53,-4.31 -0.72,-0.91 -1.66,-1.48 -2.84,-1.71 -1.17,-0.22 -2.63,-0.34 -4.37,-0.34 -1.81,0 -3.29,0.12 -4.43,0.34 -1.13,0.23 -2.04,0.8 -2.72,1.71 -0.68,0.91 -1.19,2.34 -1.53,4.31 -0.34,1.97 -0.55,4.65 -0.63,8.06 -0.07,3.41 -0.11,7.72 -0.11,12.94 0,5.22 0.04,9.54 0.11,12.94 0.08,3.41 0.29,6.09 0.63,8.06 0.34,1.97 0.85,3.41 1.53,4.32 0.68,0.9 1.59,1.47 2.72,1.7 1.14,0.23 2.62,0.34 4.43,0.34z"/>
   <path id="10" class="fil1 str0" d="M254.03 308.95l0 -78.1 26.34 0c4.31,0 7.77,0.55 10.38,1.65 2.61,1.09 4.58,2.74 5.91,4.94 1.32,2.19 2.19,4.82 2.61,7.88 0.41,3.07 0.62,6.57 0.62,10.51 0,3.1 -0.17,6.11 -0.51,9.02 -0.34,2.91 -1.08,5.5 -2.21,7.78 -1.14,2.27 -2.88,4.04 -5.23,5.33l9.54 30.99 -15.44 0 -8.4 -29.97 3.18 1.37c-0.45,0.07 -0.98,0.15 -1.59,0.22 -0.6,0.08 -1.28,0.11 -2.04,0.11l-8.29 0 0 28.27 -14.87 0zm14.87 -40.41l7.72 0c1.89,0 3.39,-0.21 4.48,-0.63 1.1,-0.41 1.93,-1.09 2.5,-2.04 0.57,-0.94 0.93,-2.25 1.08,-3.92 0.15,-1.66 0.23,-3.66 0.23,-6.01 0,-2.5 -0.08,-4.56 -0.23,-6.19 -0.15,-1.62 -0.49,-2.89 -1.02,-3.8 -0.53,-0.91 -1.34,-1.57 -2.44,-1.99 -1.1,-0.41 -2.63,-0.62 -4.6,-0.62l-7.72 0 0 25.2z"/>
   <polygon id="11" class="fil1 str0" points="327.87,308.95 327.87,243.79 312.66,243.79 312.66,230.85 358.07,230.85 358.07,243.79 342.86,243.79 342.86,308.95 "/>
   <g>
   </g>
   <g style="clip-path:url(#id0)">
    <g id="_2119876102352">
     <g id="THE_FINALS_Logotypes_Symbol.svg">
      <sodipodi:namedview id="namedview4" pagecolor="#ffffff" bordercolor="#000000" borderopacity="0.25" inkscape:showpageshadow="2" inkscape:pageopacity="0.0" inkscape:pagecheckerboard="0" inkscape:deskcolor="#d1d1d1"/>
      <g id="g8" inkscape:groupmode="layer" inkscape:label="THE_FINALS_Logotypes_Symbol">
       <g id="g10">
        <g>
        </g>
       </g>
       <g style="clip-path:url(#id1)">
        <g>
         <path id="path20" class="fil2" d="M279.61 218.17l80.93 0 -133.5 -192.44c-9.24,-13.36 -22.3,-23.86 -42.06,-23.86 -20.39,0 -33.45,11.45 -42.69,23.86l-136.37 192.44 77.75 0 49.82 -70.33 48.11 70.33 80.93 0 -87.67 -128.73 8.85 -12.5 95.9 141.23z"/>
        </g>
       </g>
       <g style="clip-path:url(#id2)">
        <polygon class="fil3" points="-226.05,-101.48 592.38,-101.48 592.38,321.38 -226.05,321.38 "/>
       </g>
      </g>
     </g>
    </g>
   </g>
   <polygon class="fil3" points="0,0 366.32,0 366.32,219.9 0,219.9 "/>
  </g>
 </g>
</svg>
